<?xml version="1.0" encoding="iso-8859-1"?>
<!-- Uploaded to: SVG Repo, www.svgrepo.com, Generator: SVG Repo Mixer Tools -->
<svg fill="#000000" height="800px" width="800px" version="1.1" id="Layer_1" xmlns="http://www.w3.org/2000/svg" xmlns:xlink="http://www.w3.org/1999/xlink" 
	 viewBox="0 0 512 512" xml:space="preserve">
<g>
	<g>
		<path d="M506.299,202.547c-3.639-17.047-27.892-17.747-32.447-0.868c-15.349,56.821-67.256,98.886-128.808,98.843
			c-73.591-0.013-133.552-59.853-133.565-133.565C211.435,105.4,253.502,53.498,310.32,38.148
			c16.83-4.546,16.229-28.799-0.868-32.446C292.245,2.03,274.371-0.001,256,0C114.796,0.031,0.031,114.79,0,256
			c0.031,141.21,114.796,255.969,256,256c141.204-0.031,255.969-114.79,256-256C512,237.628,509.97,219.756,506.299,202.547z
			 M256,478.609C133.31,478.595,33.405,378.807,33.391,256c0.013-117.315,91.732-215.934,211.207-222.03
			c-40.315,30.442-66.481,78.606-66.511,132.986c0.031,92.111,74.851,166.925,166.956,166.956
			c54.378-0.03,102.544-26.195,132.986-66.511C471.924,387.076,373.12,478.595,256,478.609z"/>
	</g>
</g>
</svg>